<svg width="29" height="29" viewBox="0 0 29 29" fill="none" xmlns="http://www.w3.org/2000/svg">
<path d="M22.07 5.56779C19.4023 2.90001 15.0579 2.90001 12.393 5.56779L5.00139 12.9537C4.95325 13.0019 4.92776 13.067 4.92776 13.135C4.92776 13.2029 4.95325 13.2681 5.00139 13.3162L6.04641 14.3612C6.09418 14.4088 6.15884 14.4355 6.22625 14.4355C6.29365 14.4355 6.35831 14.4088 6.40608 14.3612L13.7977 6.9753C14.7153 6.05773 15.9359 5.55363 17.2329 5.55363C18.53 5.55363 19.7506 6.05773 20.6653 6.9753C21.5829 7.89288 22.087 9.11349 22.087 10.4077C22.087 11.7048 21.5829 12.9226 20.6653 13.8401L13.1321 21.3705L11.9115 22.5911C10.7702 23.7324 8.91526 23.7324 7.77395 22.5911C7.2217 22.0389 6.91868 21.3054 6.91868 20.5237C6.91868 19.7421 7.2217 19.0086 7.77395 18.4564L15.2477 10.9855C15.4374 10.7985 15.6866 10.6938 15.9528 10.6938H15.9557C16.2219 10.6938 16.4683 10.7985 16.6552 10.9855C16.8449 11.1752 16.9469 11.4244 16.9469 11.6906C16.9469 11.954 16.8421 12.2032 16.6552 12.3901L10.5465 18.4932C10.4984 18.5413 10.4729 18.6065 10.4729 18.6744C10.4729 18.7424 10.4984 18.8075 10.5465 18.8557L11.5915 19.9007C11.6393 19.9483 11.704 19.975 11.7714 19.975C11.8388 19.975 11.9034 19.9483 11.9512 19.9007L18.057 13.7948C18.6206 13.2313 18.9293 12.4836 18.9293 11.6878C18.9293 10.892 18.6178 10.1415 18.057 9.58077C16.8931 8.41681 15.0013 8.41964 13.8373 9.58077L13.1123 10.3086L6.36643 17.0517C5.90858 17.5068 5.54565 18.0484 5.29869 18.6449C5.05172 19.2414 4.92565 19.881 4.92776 20.5266C4.92776 21.8378 5.44036 23.0697 6.36643 23.9958C7.32649 24.953 8.58391 25.4317 9.84133 25.4317C11.0988 25.4317 12.3562 24.953 13.3134 23.9958L22.07 15.2448C23.3586 13.9534 24.0723 12.2344 24.0723 10.4077C24.0751 8.57823 23.3614 6.85919 22.07 5.56779Z" fill="#CCCCCC"/>
</svg>
