<svg width="21" height="21" viewBox="0 0 21 21" fill="none" xmlns="http://www.w3.org/2000/svg">
<g clip-path="url(#clip0)">
<path d="M17.2084 0H1.42112C1.02202 0 0.698637 0.323482 0.698637 0.722487V4.88873H-0.208421C-0.607523 4.88873 -0.930908 5.21221 -0.930908 5.61122C-0.930908 6.01023 -0.607523 6.33371 -0.208421 6.33371H0.698637V9.77756H-0.208421C-0.607523 9.77756 -0.930908 10.101 -0.930908 10.5C-0.930908 10.8991 -0.607523 11.2225 -0.208421 11.2225H0.698637V14.6663H-0.208421C-0.607523 14.6663 -0.930908 14.9898 -0.930908 15.3888C-0.930908 15.7878 -0.607523 16.1113 -0.208421 16.1113H0.698637V20.2775C0.698637 20.6765 1.02202 21 1.42112 21H17.2085C17.6076 21 17.931 20.6765 17.931 20.2775V0.722487C17.9309 0.323482 17.6075 0 17.2084 0ZM16.4859 19.555H2.14361V16.1113H3.05067C3.44977 16.1113 3.77316 15.7878 3.77316 15.3888C3.77316 14.9898 3.44977 14.6663 3.05067 14.6663H2.14361V11.2225H3.05067C3.44977 11.2225 3.77316 10.8991 3.77316 10.5C3.77316 10.101 3.44977 9.77756 3.05067 9.77756H2.14361V6.33371H3.05067C3.44977 6.33371 3.77316 6.01023 3.77316 5.61122C3.77316 5.21221 3.44977 4.88873 3.05067 4.88873H2.14361V1.44497H16.486V19.555H16.4859Z" fill="white"/>
<path d="M9.83165 10.8322C11.4697 10.8322 12.8023 9.49907 12.8023 7.86047C12.8023 6.22177 11.4697 4.88864 9.83165 4.88864C8.19314 4.88864 6.86011 6.22177 6.86011 7.86047C6.86011 9.49907 8.19314 10.8322 9.83165 10.8322ZM9.83165 6.33371C10.6729 6.33371 11.3574 7.01863 11.3574 7.86057C11.3574 8.70241 10.673 9.38733 9.83165 9.38733C8.9899 9.38733 8.30508 8.70241 8.30508 7.86057C8.30508 7.01863 8.9899 6.33371 9.83165 6.33371Z" fill="white"/>
<path d="M6.52376 16.2357C6.92286 16.2357 7.24624 15.9122 7.24624 15.5132V14.2647C7.24624 13.4633 7.89841 12.8112 8.69989 12.8112H10.9812C11.7827 12.8112 12.4349 13.4632 12.4349 14.2647V15.5132C12.4349 15.9122 12.7582 16.2357 13.1573 16.2357C13.5563 16.2357 13.8798 15.9122 13.8798 15.5132V14.2647C13.8798 12.6665 12.5795 11.3663 10.9812 11.3663H8.69989C7.10155 11.3663 5.80127 12.6664 5.80127 14.2647V15.5132C5.80127 15.9122 6.12475 16.2357 6.52376 16.2357Z" fill="white"/>
</g>
<defs>
<clipPath id="clip0">
<rect width="21" height="21" fill="white"/>
</clipPath>
</defs>
</svg>
