<svg width="27" height="27" viewBox="0 0 27 27" fill="none" xmlns="http://www.w3.org/2000/svg">
<path d="M5.4 0H21.6C23.0322 0 24.4057 0.568927 25.4184 1.58162C26.4311 2.59432 27 3.96783 27 5.4V21.6C27 23.0322 26.4311 24.4057 25.4184 25.4184C24.4057 26.4311 23.0322 27 21.6 27H5.4C3.96783 27 2.59432 26.4311 1.58162 25.4184C0.568927 24.4057 0 23.0322 0 21.6V5.4C0 3.96783 0.568927 2.59432 1.58162 1.58162C2.59432 0.568927 3.96783 0 5.4 0ZM5.4 2.7C4.68392 2.7 3.99716 2.98446 3.49081 3.49081C2.98446 3.99716 2.7 4.68392 2.7 5.4V21.6C2.7 22.3161 2.98446 23.0028 3.49081 23.5092C3.99716 24.0155 4.68392 24.3 5.4 24.3H21.6C22.3161 24.3 23.0028 24.0155 23.5092 23.5092C24.0155 23.0028 24.3 22.3161 24.3 21.6V5.4C24.3 4.68392 24.0155 3.99716 23.5092 3.49081C23.0028 2.98446 22.3161 2.7 21.6 2.7H5.4ZM15.4089 13.5L19.2281 17.3178C19.4814 17.5711 19.6237 17.9147 19.6237 18.2729C19.6237 18.6312 19.4814 18.9747 19.2281 19.2281C18.9747 19.4814 18.6312 19.6237 18.2729 19.6237C17.9147 19.6237 17.5711 19.4814 17.3178 19.2281L13.5 15.4089L9.6822 19.2281C9.42889 19.4814 9.08532 19.6237 8.72708 19.6237C8.36883 19.6237 8.02526 19.4814 7.77195 19.2281C7.51864 18.9747 7.37632 18.6312 7.37632 18.2729C7.37632 18.0955 7.41126 17.9199 7.47914 17.756C7.54703 17.5921 7.64652 17.4432 7.77195 17.3178L11.5911 13.5L7.77195 9.6822C7.51864 9.42889 7.37632 9.08532 7.37632 8.72708C7.37632 8.54969 7.41126 8.37405 7.47914 8.21017C7.54703 8.04628 7.64652 7.89738 7.77195 7.77195C7.89738 7.64652 8.04628 7.54703 8.21017 7.47914C8.37405 7.41126 8.54969 7.37632 8.72708 7.37632C9.08532 7.37632 9.42889 7.51864 9.6822 7.77195L13.5 11.5911L17.3178 7.77195C17.5711 7.51864 17.9147 7.37632 18.2729 7.37632C18.6312 7.37632 18.9747 7.51864 19.2281 7.77195C19.4814 8.02526 19.6237 8.36883 19.6237 8.72708C19.6237 9.08532 19.4814 9.42889 19.2281 9.6822L15.4089 13.5Z" fill="url(#paint0_linear)"/>
<defs>
<linearGradient id="paint0_linear" x1="13.5" y1="0" x2="13.5" y2="27" gradientUnits="userSpaceOnUse">
<stop stop-color="#41DC97"/>
<stop offset="1" stop-color="#13A08F"/>
</linearGradient>
</defs>
</svg>
